{
    "asset" : {
        "generator" : "Khronos glTF Blender I/O v1.0.5",
        "version" : "2.0"
    },
    "scene" : 0,
    "scenes" : [
        {
            "name" : "Scene",
            "nodes" : [
                0
            ]
        }
    ],
    "nodes" : [
        {
            "mesh" : 0,
            "name" : "shuttle",
            "scale" : [
                2,
                2,
                2
            ],
            "translation" : [
                3.9902048110961914,
                2.835381507873535,
                -3.564875841140747
            ]
        }
    ],
    "materials" : [
        {
            "doubleSided" : true,
            "name" : "white paint",
            "pbrMetallicRoughness" : {
                "baseColorFactor" : [
                    0.800000011920929,
                    0.800000011920929,
                    0.800000011920929,
                    1
                ],
                "metallicFactor" : 0
            }
        },
        {
            "doubleSided" : true,
            "name" : "orange paint",
            "pbrMetallicRoughness" : {
                "metallicFactor" : 0,
                "roughnessFactor" : 0.5
            }
        },
        {
            "doubleSided" : true,
            "name" : "dark paint",
            "pbrMetallicRoughness" : {
                "baseColorFactor" : [
                    0.08001174032688141,
                    0.08001174032688141,
                    0.08001174032688141,
                    1
                ],
                "metallicFactor" : 0
            }
        },
        {
            "doubleSided" : true,
            "name" : "brown paint",
            "pbrMetallicRoughness" : {
                "baseColorFactor" : [
                    0.15232515335083008,
                    0.1017199456691742,
                    0.0656026303768158,
                    1
                ],
                "metallicFactor" : 0,
                "roughnessFactor" : 0.5
            }
        },
        {
            "doubleSided" : true,
            "name" : "window",
            "pbrMetallicRoughness" : {
                "baseColorFactor" : [
                    0.03310268744826317,
                    0.03310268744826317,
                    0.03310268744826317,
                    1
                ],
                "metallicFactor" : 0,
                "roughnessFactor" : 0.12629756331443787
            }
        },
        {
            "doubleSided" : true,
            "name" : "gray paint",
            "pbrMetallicRoughness" : {
                "baseColorFactor" : [
                    0.2395523190498352,
                    0.2395523190498352,
                    0.2395523190498352,
                    1
                ],
                "metallicFactor" : 0,
                "roughnessFactor" : 0.5
            }
        },
        {
            "doubleSided" : true,
            "emissiveFactor" : [
                1,
                0.7079201936721802,
                0.15819968283176422
            ],
            "name" : "light",
            "pbrMetallicRoughness" : {}
        }
    ],
    "meshes" : [
        {
            "name" : "Plane",
            "primitives" : [
                {
                    "attributes" : {
                        "POSITION" : 0,
                        "NORMAL" : 1,
                        "TEXCOORD_0" : 2
                    },
                    "indices" : 3,
                    "material" : 0
                },
                {
                    "attributes" : {
                        "POSITION" : 4,
                        "NORMAL" : 5,
                        "TEXCOORD_0" : 6
                    },
                    "indices" : 7,
                    "material" : 1
                },
                {
                    "attributes" : {
                        "POSITION" : 8,
                        "NORMAL" : 9,
                        "TEXCOORD_0" : 10
                    },
                    "indices" : 11,
                    "material" : 2
                },
                {
                    "attributes" : {
                        "POSITION" : 12,
                        "NORMAL" : 13,
                        "TEXCOORD_0" : 14
                    },
                    "indices" : 15,
                    "material" : 3
                },
                {
                    "attributes" : {
                        "POSITION" : 16,
                        "NORMAL" : 17,
                        "TEXCOORD_0" : 18
                    },
                    "indices" : 19,
                    "material" : 4
                },
                {
                    "attributes" : {
                        "POSITION" : 20,
                        "NORMAL" : 21,
                        "TEXCOORD_0" : 22
                    },
                    "indices" : 23,
                    "material" : 5
                },
                {
                    "attributes" : {
                        "POSITION" : 24,
                        "NORMAL" : 25,
                        "TEXCOORD_0" : 26
                    },
                    "indices" : 27,
                    "material" : 6
                }
            ]
        }
    ],
    "accessors" : [
        {
            "bufferView" : 0,
            "componentType" : 5126,
            "count" : 17063,
            "max" : [
                1.7076112031936646,
                2.199082851409912,
                4.566264629364014
            ],
            "min" : [
                -1.7076112031936646,
                -1.8815349340438843,
                -2.0038704872131348
            ],
            "type" : "VEC3"
        },
        {
            "bufferView" : 1,
            "componentType" : 5126,
            "count" : 17063,
            "type" : "VEC3"
        },
        {
            "bufferView" : 2,
            "componentType" : 5126,
            "count" : 17063,
            "type" : "VEC2"
        },
        {
            "bufferView" : 3,
            "componentType" : 5123,
            "count" : 49128,
            "type" : "SCALAR"
        },
        {
            "bufferView" : 4,
            "componentType" : 5126,
            "count" : 740,
            "max" : [
                0.5866498351097107,
                -0.06675952672958374,
                3.9553239345550537
            ],
            "min" : [
                -0.5866498351097107,
                -1.2400591373443604,
                -4.091289520263672
            ],
            "type" : "VEC3"
        },
        {
            "bufferView" : 5,
            "componentType" : 5126,
            "count" : 740,
            "type" : "VEC3"
        },
        {
            "bufferView" : 6,
            "componentType" : 5126,
            "count" : 740,
            "type" : "VEC2"
        },
        {
            "bufferView" : 7,
            "componentType" : 5123,
            "count" : 3264,
            "type" : "SCALAR"
        },
        {
            "bufferView" : 8,
            "componentType" : 5126,
            "count" : 10539,
            "max" : [
                1.7852855920791626,
                2.0475823879241943,
                4.531527519226074
            ],
            "min" : [
                -1.7852855920791626,
                -1.8599721193313599,
                -2.1421902179718018
            ],
            "type" : "VEC3"
        },
        {
            "bufferView" : 9,
            "componentType" : 5126,
            "count" : 10539,
            "type" : "VEC3"
        },
        {
            "bufferView" : 10,
            "componentType" : 5126,
            "count" : 10539,
            "type" : "VEC2"
        },
        {
            "bufferView" : 11,
            "componentType" : 5123,
            "count" : 23034,
            "type" : "SCALAR"
        },
        {
            "bufferView" : 12,
            "componentType" : 5126,
            "count" : 2520,
            "max" : [
                0.6139051914215088,
                1.221553087234497,
                3.9553239345550537
            ],
            "min" : [
                -0.6139051914215088,
                -1.2656421661376953,
                -4.286551475524902
            ],
            "type" : "VEC3"
        },
        {
            "bufferView" : 13,
            "componentType" : 5126,
            "count" : 2520,
            "type" : "VEC3"
        },
        {
            "bufferView" : 14,
            "componentType" : 5126,
            "count" : 2520,
            "type" : "VEC2"
        },
        {
            "bufferView" : 15,
            "componentType" : 5123,
            "count" : 6984,
            "type" : "SCALAR"
        },
        {
            "bufferView" : 16,
            "componentType" : 5126,
            "count" : 72,
            "max" : [
                0.40671616792678833,
                0.8470308184623718,
                2.862266778945923
            ],
            "min" : [
                -0.40671616792678833,
                0.45596417784690857,
                -0.20057980716228485
            ],
            "type" : "VEC3"
        },
        {
            "bufferView" : 17,
            "componentType" : 5126,
            "count" : 72,
            "type" : "VEC3"
        },
        {
            "bufferView" : 18,
            "componentType" : 5126,
            "count" : 72,
            "type" : "VEC2"
        },
        {
            "bufferView" : 19,
            "componentType" : 5123,
            "count" : 144,
            "type" : "SCALAR"
        },
        {
            "bufferView" : 20,
            "componentType" : 5126,
            "count" : 4522,
            "max" : [
                1.7900669574737549,
                2.07395339012146,
                4.563911437988281
            ],
            "min" : [
                -1.7900669574737549,
                -1.5940946340560913,
                -0.8761579990386963
            ],
            "type" : "VEC3"
        },
        {
            "bufferView" : 21,
            "componentType" : 5126,
            "count" : 4522,
            "type" : "VEC3"
        },
        {
            "bufferView" : 22,
            "componentType" : 5126,
            "count" : 4522,
            "type" : "VEC2"
        },
        {
            "bufferView" : 23,
            "componentType" : 5123,
            "count" : 12984,
            "type" : "SCALAR"
        },
        {
            "bufferView" : 24,
            "componentType" : 5126,
            "count" : 256,
            "max" : [
                0.4232512414455414,
                0.646720290184021,
                3.0111751556396484
            ],
            "min" : [
                -0.4232512414455414,
                -0.29441264271736145,
                -1.819171667098999
            ],
            "type" : "VEC3"
        },
        {
            "bufferView" : 25,
            "componentType" : 5126,
            "count" : 256,
            "type" : "VEC3"
        },
        {
            "bufferView" : 26,
            "componentType" : 5126,
            "count" : 256,
            "type" : "VEC2"
        },
        {
            "bufferView" : 27,
            "componentType" : 5123,
            "count" : 384,
            "type" : "SCALAR"
        }
    ],
    "bufferViews" : [
        {
            "buffer" : 0,
            "byteLength" : 204756,
            "byteOffset" : 0
        },
        {
            "buffer" : 0,
            "byteLength" : 204756,
            "byteOffset" : 204756
        },
        {
            "buffer" : 0,
            "byteLength" : 136504,
            "byteOffset" : 409512
        },
        {
            "buffer" : 0,
            "byteLength" : 98256,
            "byteOffset" : 546016
        },
        {
            "buffer" : 0,
            "byteLength" : 8880,
            "byteOffset" : 644272
        },
        {
            "buffer" : 0,
            "byteLength" : 8880,
            "byteOffset" : 653152
        },
        {
            "buffer" : 0,
            "byteLength" : 5920,
            "byteOffset" : 662032
        },
        {
            "buffer" : 0,
            "byteLength" : 6528,
            "byteOffset" : 667952
        },
        {
            "buffer" : 0,
            "byteLength" : 126468,
            "byteOffset" : 674480
        },
        {
            "buffer" : 0,
            "byteLength" : 126468,
            "byteOffset" : 800948
        },
        {
            "buffer" : 0,
            "byteLength" : 84312,
            "byteOffset" : 927416
        },
        {
            "buffer" : 0,
            "byteLength" : 46068,
            "byteOffset" : 1011728
        },
        {
            "buffer" : 0,
            "byteLength" : 30240,
            "byteOffset" : 1057796
        },
        {
            "buffer" : 0,
            "byteLength" : 30240,
            "byteOffset" : 1088036
        },
        {
            "buffer" : 0,
            "byteLength" : 20160,
            "byteOffset" : 1118276
        },
        {
            "buffer" : 0,
            "byteLength" : 13968,
            "byteOffset" : 1138436
        },
        {
            "buffer" : 0,
            "byteLength" : 864,
            "byteOffset" : 1152404
        },
        {
            "buffer" : 0,
            "byteLength" : 864,
            "byteOffset" : 1153268
        },
        {
            "buffer" : 0,
            "byteLength" : 576,
            "byteOffset" : 1154132
        },
        {
            "buffer" : 0,
            "byteLength" : 288,
            "byteOffset" : 1154708
        },
        {
            "buffer" : 0,
            "byteLength" : 54264,
            "byteOffset" : 1154996
        },
        {
            "buffer" : 0,
            "byteLength" : 54264,
            "byteOffset" : 1209260
        },
        {
            "buffer" : 0,
            "byteLength" : 36176,
            "byteOffset" : 1263524
        },
        {
            "buffer" : 0,
            "byteLength" : 25968,
            "byteOffset" : 1299700
        },
        {
            "buffer" : 0,
            "byteLength" : 3072,
            "byteOffset" : 1325668
        },
        {
            "buffer" : 0,
            "byteLength" : 3072,
            "byteOffset" : 1328740
        },
        {
            "buffer" : 0,
            "byteLength" : 2048,
            "byteOffset" : 1331812
        },
        {
            "buffer" : 0,
            "byteLength" : 768,
            "byteOffset" : 1333860
        }
    ],
    "buffers" : [
        {
            "byteLength" : 1334628,
            "uri" : "data:application/octet-stream;base64,"
        }
    ]
}
